HIERARCHY
ROOT Hips
{
	OFFSET 0.000000 121.760803 0.000000
	CHANNELS 6 Xposition Yposition Zposition Xrotation Yrotation Zrotation 
	JOINT Spine
	{
		OFFSET 0.072000 7.257294 -0.789700
		CHANNELS 3 Xrotation Yrotation Zrotation
		JOINT Spine1
		{
			OFFSET 0.000000 12.508769 -0.658067
			CHANNELS 3 Xrotation Yrotation Zrotation
			JOINT Spine1_split
			{
				OFFSET 0.000000 12.508769 -0.658067
				CHANNELS 3 Xrotation Yrotation Zrotation
				JOINT Spine2
				{
					OFFSET 0.000000 12.508769 -0.658067
					CHANNELS 3 Xrotation Yrotation Zrotation
					JOINT Neck
					{
						OFFSET 0.000000 14.033295 7.520400
						CHANNELS 3 Xrotation Yrotation Zrotation
						JOINT Head
						{
							OFFSET 0.000000 8.198502 5.703100
							CHANNELS 3 Xrotation Yrotation Zrotation
							JOINT HeadTop_End
							{
								OFFSET 0.000000 17.760803 13.332701
								CHANNELS 3 Xrotation Yrotation Zrotation
								End Site
								{
									OFFSET 0.000000 0.000000 0.000000
								}
							}
						}
					}
					JOINT LeftShoulder
					{
						OFFSET 6.292450 5.785301 -0.669000
						CHANNELS 3 Xrotation Yrotation Zrotation
						JOINT LeftShoulder_split
						{
							OFFSET 6.292450 5.785301 -0.669000
							CHANNELS 3 Xrotation Yrotation Zrotation
							JOINT LeftArm
							{
								OFFSET 13.907140 -6.093903 1.965100
								CHANNELS 3 Xrotation Yrotation Zrotation
								JOINT LeftForeArm
								{
									OFFSET 34.140198 0.000000 0.000000
									CHANNELS 3 Xrotation Yrotation Zrotation
									JOINT LeftHand
									{
										OFFSET 40.960209 0.000000 0.000000
										CHANNELS 3 Xrotation Yrotation Zrotation
										JOINT LeftHandThumb1
										{
											OFFSET 10.006996 -7.170425 9.573125
											CHANNELS 3 Xrotation Yrotation Zrotation
											JOINT LeftHandThumb2
											{
												OFFSET 1.835007 -1.059448 1.059443
												CHANNELS 3 Xrotation Yrotation Zrotation
												JOINT LeftHandThumb3
												{
													OFFSET 2.112267 -1.219513 1.219518
													CHANNELS 3 Xrotation Yrotation Zrotation
													JOINT LeftHandThumb4
													{
														OFFSET 4.843811 -2.796570 2.796576
														CHANNELS 3 Xrotation Yrotation Zrotation
														End Site
														{
															OFFSET 0.000000 0.000000 0.000000
														}
													}
												}
											}
										}
										JOINT LeftHandIndex1
										{
											OFFSET 18.389847 -0.922348 4.596882
											CHANNELS 3 Xrotation Yrotation Zrotation
											JOINT LeftHandIndex2
											{
												OFFSET 4.711273 0.000000 0.000000
												CHANNELS 3 Xrotation Yrotation Zrotation
												JOINT LeftHandIndex3
												{
													OFFSET 2.886131 0.000000 0.000000
													CHANNELS 3 Xrotation Yrotation Zrotation
													JOINT LeftHandIndex4
													{
														OFFSET 6.145912 0.000000 0.000000
														CHANNELS 3 Xrotation Yrotation Zrotation
														End Site
														{
															OFFSET 0.000000 0.000000 0.000000
														}
													}
												}
											}
										}
										JOINT LeftHandMiddle1
										{
											OFFSET 18.013008 0.000000 0.000000
											CHANNELS 3 Xrotation Yrotation Zrotation
											JOINT LeftHandMiddle2
											{
												OFFSET 4.946693 0.000000 0.000000
												CHANNELS 3 Xrotation Yrotation Zrotation
												JOINT LeftHandMiddle3
												{
													OFFSET 3.342232 0.000000 0.000000
													CHANNELS 3 Xrotation Yrotation Zrotation
													JOINT LeftHandMiddle4
													{
														OFFSET 4.461754 0.000000 0.000000
														CHANNELS 3 Xrotation Yrotation Zrotation
														End Site
														{
															OFFSET 0.000000 0.000000 0.000000
														}
													}
												}
											}
										}
										JOINT LeftHandRing1
										{
											OFFSET 15.849892 -0.102921 -4.126150
											CHANNELS 3 Xrotation Yrotation Zrotation
											JOINT LeftHandRing2
											{
												OFFSET 3.527054 0.000000 0.000000
												CHANNELS 3 Xrotation Yrotation Zrotation
												JOINT LeftHandRing3
												{
													OFFSET 2.961098 0.000000 0.000000
													CHANNELS 3 Xrotation Yrotation Zrotation
													JOINT LeftHandRing4
													{
														OFFSET 4.927200 0.000000 0.000000
														CHANNELS 3 Xrotation Yrotation Zrotation
														End Site
														{
															OFFSET 0.000000 0.000000 0.000000
														}
													}
												}
											}
										}
										JOINT LeftHandPinky1
										{
											OFFSET 12.791824 -0.832031 -6.799156
											CHANNELS 3 Xrotation Yrotation Zrotation
											JOINT LeftHandPinky2
											{
												OFFSET 3.327133 0.000000 0.000000
												CHANNELS 3 Xrotation Yrotation Zrotation
												JOINT LeftHandPinky3
												{
													OFFSET 3.014900 0.000000 0.000000
													CHANNELS 3 Xrotation Yrotation Zrotation
													JOINT LeftHandPinky4
													{
														OFFSET 5.847786 0.000000 0.000000
														CHANNELS 3 Xrotation Yrotation Zrotation
														End Site
														{
															OFFSET 0.000000 0.000000 0.000000
														}
													}
												}
											}
										}
									}
								}
							}
						}
					}
					JOINT RightShoulder
					{
						OFFSET -6.292450 5.785301 -0.669000
						CHANNELS 3 Xrotation Yrotation Zrotation
						JOINT RightShoulder_split
						{
							OFFSET -6.292450 5.785301 -0.669000
							CHANNELS 3 Xrotation Yrotation Zrotation
							JOINT RightArm
							{
								OFFSET -13.907140 -6.093903 1.965100
								CHANNELS 3 Xrotation Yrotation Zrotation
								JOINT RightForeArm
								{
									OFFSET -34.140198 0.000000 0.000000
									CHANNELS 3 Xrotation Yrotation Zrotation
									JOINT RightHand
									{
										OFFSET -40.960209 0.000000 0.000000
										CHANNELS 3 Xrotation Yrotation Zrotation
										JOINT RightHandThumb1
										{
											OFFSET -10.007050 -7.170456 9.573117
											CHANNELS 3 Xrotation Yrotation Zrotation
											JOINT RightHandThumb2
											{
												OFFSET -1.835007 -1.059448 1.059443
												CHANNELS 3 Xrotation Yrotation Zrotation
												JOINT RightHandThumb3
												{
													OFFSET -2.112267 -1.219513 1.219518
													CHANNELS 3 Xrotation Yrotation Zrotation
													JOINT RightHandThumb4
													{
														OFFSET -4.843834 -2.796585 2.796590
														CHANNELS 3 Xrotation Yrotation Zrotation
														End Site
														{
															OFFSET 0.000000 0.000000 0.000000
														}
													}
												}
											}
										}
										JOINT RightHandIndex1
										{
											OFFSET -18.389870 -0.922424 4.596786
											CHANNELS 3 Xrotation Yrotation Zrotation
											JOINT RightHandIndex2
											{
												OFFSET -4.711273 0.000000 0.000000
												CHANNELS 3 Xrotation Yrotation Zrotation
												JOINT RightHandIndex3
												{
													OFFSET -2.886131 0.000000 0.000000
													CHANNELS 3 Xrotation Yrotation Zrotation
													JOINT RightHandIndex4
													{
														OFFSET -6.145920 0.000000 0.000000
														CHANNELS 3 Xrotation Yrotation Zrotation
														End Site
														{
															OFFSET 0.000000 0.000000 0.000000
														}
													}
												}
											}
										}
										JOINT RightHandMiddle1
										{
											OFFSET -18.013008 0.000000 0.000000
											CHANNELS 3 Xrotation Yrotation Zrotation
											JOINT RightHandMiddle2
											{
												OFFSET -4.946693 0.000000 0.000000
												CHANNELS 3 Xrotation Yrotation Zrotation
												JOINT RightHandMiddle3
												{
													OFFSET -3.342232 0.000000 0.000000
													CHANNELS 3 Xrotation Yrotation Zrotation
													JOINT RightHandMiddle4
													{
														OFFSET -4.461754 0.000000 0.000000
														CHANNELS 3 Xrotation Yrotation Zrotation
														End Site
														{
															OFFSET 0.000000 0.000000 0.000000
														}
													}
												}
											}
										}
										JOINT RightHandRing1
										{
											OFFSET -15.849876 -0.102936 -4.126237
											CHANNELS 3 Xrotation Yrotation Zrotation
											JOINT RightHandRing2
											{
												OFFSET -3.527054 0.000000 0.000000
												CHANNELS 3 Xrotation Yrotation Zrotation
												JOINT RightHandRing3
												{
													OFFSET -2.961098 0.000000 0.000000
													CHANNELS 3 Xrotation Yrotation Zrotation
													JOINT RightHandRing4
													{
														OFFSET -4.927200 0.000000 0.000000
														CHANNELS 3 Xrotation Yrotation Zrotation
														End Site
														{
															OFFSET 0.000000 0.000000 0.000000
														}
													}
												}
											}
										}
										JOINT RightHandPinky1
										{
											OFFSET -12.791786 -0.832077 -6.799222
											CHANNELS 3 Xrotation Yrotation Zrotation
											JOINT RightHandPinky2
											{
												OFFSET -3.327133 0.000000 0.000000
												CHANNELS 3 Xrotation Yrotation Zrotation
												JOINT RightHandPinky3
												{
													OFFSET -3.014900 0.000000 0.000000
													CHANNELS 3 Xrotation Yrotation Zrotation
													JOINT RightHandPinky4
													{
														OFFSET -5.847786 0.000000 0.000000
														CHANNELS 3 Xrotation Yrotation Zrotation
														End Site
														{
															OFFSET 0.000000 0.000000 0.000000
														}
													}
												}
											}
										}
									}
								}
							}
						}
					}
				}
			}
		}
	}
	JOINT LeftUpLeg
	{
		OFFSET 13.026900 -6.336304 -1.092800
		CHANNELS 3 Xrotation Yrotation Zrotation
		JOINT LeftLeg
		{
			OFFSET 0.524474 -46.096886 9.782700
			CHANNELS 3 Xrotation Yrotation Zrotation
			JOINT LeftFoot
			{
				OFFSET -0.524474 -53.427422 -12.948200
				CHANNELS 3 Xrotation Yrotation Zrotation
				JOINT LeftToeBase
				{
					OFFSET 0.192200 -14.009700 16.364100
					CHANNELS 3 Xrotation Yrotation Zrotation
					JOINT LeftToe_End
					{
						OFFSET -1.784700 -0.561700 9.474800
						CHANNELS 3 Xrotation Yrotation Zrotation
						End Site
						{
							OFFSET 0.000000 0.000000 0.000000
						}
					}
				}
			}
		}
	}
	JOINT RightUpLeg
	{
		OFFSET -12.883000 -6.336304 -1.092800
		CHANNELS 3 Xrotation Yrotation Zrotation
		JOINT RightLeg
		{
			OFFSET -0.524587 -46.096825 9.782800
			CHANNELS 3 Xrotation Yrotation Zrotation
			JOINT RightFoot
			{
				OFFSET 0.524587 -53.427383 -12.948300
				CHANNELS 3 Xrotation Yrotation Zrotation
				JOINT RightToeBase
				{
					OFFSET -0.192200 -14.009700 16.364100
					CHANNELS 3 Xrotation Yrotation Zrotation
					JOINT RightToe_End
					{
						OFFSET 1.784700 -0.561700 9.474800
						CHANNELS 3 Xrotation Yrotation Zrotation
						End Site
						{
							OFFSET 0.000000 0.000000 0.000000
						}
					}
				}
			}
		}
	}
}
MOTION
Frames: 4
Frame Time: 0.016667
8.588229 108.988487 -16.829607 12.692097 9.584607 -0.209824 4.485751 -1.646567 -0.366767 1.564959 -2.658699 2.901394 0.000000 0.000000 0.000000 1.574391 -2.667813 2.901703 -3.216331 0.566821 2.708978 -15.707437 0.827951 3.034338 0.000000 0.000000 -0.000000 0.124289 -1.541123 2.568618 0.000000 0.000000 0.000000 -46.523868 -11.866268 -46.983908 -0.000008 -112.648172 -0.000016 -69.625739 -13.116150 -10.477695 10.871958 24.431619 7.994443 2.368888 5.209904 -0.238689 -7.180094 -0.217042 13.332277 0.000001 -0.000003 -0.000001 9.213465 7.430027 -85.046503 5.044738 5.795421 -82.065365 5.234702 5.818624 -83.942724 0.000003 0.000000 0.000000 3.117074 7.733731 -77.810676 3.450910 5.337693 -65.744853 4.253667 5.629521 -74.130393 0.000001 -0.000001 0.000000 2.981566 8.002560 -85.786192 3.085033 5.157972 -61.746078 7.275115 5.675707 -104.109937 -0.000001 -0.000003 0.000001 -0.595398 11.406711 -86.448161 6.485218 5.816721 -96.232769 6.548311 5.809533 -96.855798 0.000002 -0.000001 -0.000001 -1.082566 -10.880356 5.337833 0.000000 0.000000 0.000000 -47.164912 8.617417 48.689567 0.000036 120.211179 -0.000041 -63.342198 15.367407 21.209066 3.592563 -16.454949 -11.549602 2.790447 -6.737067 -0.669427 -5.037090 -6.511804 -15.212329 0.000000 0.000004 0.000001 -0.566145 0.330611 80.510206 3.774813 -4.572993 79.066775 3.866190 -4.589663 80.210811 -0.000000 0.000001 -0.000000 -2.294811 -4.464797 67.849624 2.486298 -4.121255 62.190245 3.051641 -4.372233 69.813378 -0.000000 0.000002 0.000002 -2.842469 -5.033186 74.536680 2.011849 -3.834330 55.359021 5.242860 -4.620270 97.232592 0.000000 -0.000000 -0.000000 -12.727970 -6.563313 69.830222 4.358513 -4.647602 86.319309 4.391093 -4.649587 86.721054 -0.000004 0.000001 -0.000000 -10.971722 15.367847 8.403174 35.321545 -3.000324 1.410402 15.005026 -2.815859 -2.924523 -49.900283 2.136489 -5.932653 -0.000000 0.000000 -0.000000 -44.392955 -5.444845 -8.005597 41.668484 -2.018417 3.074425 -4.059587 1.949838 -0.719112 -2.288389 0.000531 -0.093870 0.000000 0.000000 -0.000000 
8.577806 108.684647 -18.691418 14.015178 9.614941 -1.369090 3.833889 -1.258379 0.898633 3.030180 -2.333153 2.316412 0.000000 0.000000 0.000000 3.025683 -2.337050 2.305680 -3.373864 0.744375 1.970033 -20.406066 -0.736912 4.010719 -0.000000 0.000000 0.000001 0.226644 -3.126610 5.972565 0.000000 0.000000 0.000000 -55.645507 -11.976973 -43.754496 0.000094 -110.514742 0.000107 -73.310230 -11.632526 -11.828119 10.262788 23.809210 8.306462 2.382976 5.227099 -0.226559 -7.162240 -0.193215 13.353371 -0.000001 -0.000000 0.000002 8.714087 7.285045 -84.272090 4.989411 5.787483 -81.517147 5.172180 5.811676 -83.325747 0.000000 -0.000002 0.000001 2.612478 7.606788 -77.289355 3.418790 5.323156 -65.399150 4.224936 5.621307 -73.837289 0.000002 0.000001 0.000000 2.429879 7.945391 -85.449327 3.065052 5.147225 -61.523837 7.232176 5.686273 -103.676118 0.000001 -0.000003 0.000003 -1.236650 10.924697 -86.368138 6.459711 5.819432 -95.981165 6.528168 5.811898 -96.656773 0.000001 -0.000001 0.000001 -1.787726 -12.486582 1.915337 0.000000 0.000000 0.000000 -57.494121 10.709001 49.479915 -0.000020 115.866509 0.000014 -69.261171 14.057521 21.653300 4.491984 -16.714719 -11.255558 2.794868 -6.734297 -0.676033 -4.984107 -6.626291 -15.268065 -0.000000 -0.000001 -0.000002 0.329270 0.086561 80.589443 3.789513 -4.575813 79.251190 3.887131 -4.593207 80.472312 -0.000000 -0.000002 0.000001 -1.397299 -4.849270 68.072199 2.481671 -4.118803 62.125857 3.057599 -4.374429 69.891570 0.000002 0.000000 -0.000001 -2.514217 -5.055784 73.935077 1.988866 -3.818368 55.014602 5.193789 -4.626210 96.623927 -0.000001 -0.000004 -0.000001 -12.704646 -6.509662 68.593397 4.286000 -4.642390 85.423858 4.316220 -4.644701 85.796909 -0.000000 0.000003 -0.000001 -19.275839 13.874578 11.252311 45.814911 -3.983284 0.106770 14.839242 -2.723536 -0.768172 -28.484267 1.501845 -6.904192 0.000000 -0.000001 0.000002 -45.302022 -5.498566 -6.612958 44.283378 -2.735185 2.863557 -1.996079 2.019986 -1.263417 -8.826052 -0.025649 0.484105 -0.000000 0.000000 0.000000 
8.568735 108.031502 -20.433233 15.007319 9.377419 -2.387739 3.419708 -0.925793 2.053217 4.511549 -2.087240 1.761739 0.000000 0.000000 0.000000 4.497384 -2.087711 1.743153 -3.569851 0.950901 1.228297 -24.802194 -2.130056 5.138537 -0.000000 0.000000 -0.000000 0.283896 -4.204906 10.156136 0.000000 0.000000 0.000000 -64.274792 -8.933956 -40.664194 0.000108 -108.101848 0.000089 -77.039507 -10.296178 -13.415678 9.409455 23.501793 8.676153 2.397567 5.244801 -0.214014 -7.143685 -0.168686 13.375304 -0.000001 -0.000001 0.000003 8.148802 7.258568 -83.446941 4.952682 5.781915 -81.152688 5.126685 5.806210 -82.876143 -0.000001 0.000004 -0.000002 2.062242 7.456956 -76.699821 3.403262 5.316048 -65.231571 4.213482 5.617999 -73.720294 0.000001 0.000000 -0.000000 1.826201 7.873412 -85.043327 3.060749 5.144906 -61.475664 7.205540 5.692663 -103.407473 0.000000 -0.000003 0.000001 -1.938285 10.498843 -86.218134 6.450008 5.820432 -95.885447 6.524553 5.812322 -96.621092 0.000001 -0.000002 0.000001 -2.697554 -14.467637 -1.739101 0.000000 0.000000 0.000000 -67.851755 8.072150 51.708862 0.000123 110.708467 -0.000120 -75.665806 13.174090 22.239834 5.568555 -16.817336 -10.745287 2.799333 -6.731150 -0.682840 -4.929027 -6.745473 -15.326070 0.000001 0.000004 -0.000001 1.693629 -0.297626 81.040645 3.833130 -4.583836 79.797421 3.938451 -4.601504 81.112745 -0.000002 -0.000003 0.000002 -0.350498 -5.321338 68.847815 2.503176 -4.130094 62.424910 3.092148 -4.386880 70.343790 0.000002 -0.000002 -0.000001 -2.233216 -5.138396 73.955110 1.991460 -3.820180 55.053422 5.174588 -4.628402 96.385874 0.000002 -0.000001 0.000000 -12.916597 -6.321061 68.072138 4.244234 -4.638867 84.907557 4.273574 -4.641376 85.270158 -0.000002 -0.000001 -0.000000 -27.493610 11.834869 13.858329 57.054404 -4.884097 -0.644831 14.740156 -2.518127 1.616139 3.613131 -0.000003 -0.000007 0.000001 0.000000 -0.000001 -45.601430 -5.535779 -5.196858 47.270875 -3.602937 2.666577 -0.610687 2.073945 -1.989568 -15.118096 -0.102432 1.349457 -0.000000 -0.000000 0.000000 
8.518602 106.955894 -22.023081 15.071017 8.962828 -3.025980 4.268671 -0.741137 2.798715 5.525778 -2.007907 1.460071 0.000000 0.000000 0.000000 5.510002 -2.001088 1.443115 -3.821977 1.179406 0.529720 -28.309546 -3.166418 6.680835 -0.000000 0.000000 -0.000001 0.256386 -4.260462 17.532853 0.000000 0.000000 0.000000 -70.525077 -4.093737 -37.545092 0.000010 -104.831376 0.000026 -79.041066 -8.916943 -14.856360 8.253712 23.483867 9.167664 2.412689 5.263036 -0.200978 -7.124482 -0.143373 13.398065 0.000001 0.000001 -0.000001 7.606497 7.261686 -82.565765 4.989921 5.787541 -81.522146 5.154215 5.809566 -83.148298 -0.000001 -0.000001 0.000001 1.559663 7.302389 -76.019391 3.452978 5.338619 -65.767127 4.271987 5.634657 -74.317075 0.000001 -0.000000 -0.000001 1.313983 7.794553 -84.538549 3.114027 5.173385 -62.068149 7.241706 5.683958 -103.772362 0.000000 0.000000 -0.000000 -2.493209 10.178185 -85.864965 6.496558 5.815468 -96.344763 6.576919 5.806025 -97.138588 -0.000000 -0.000002 -0.000001 -4.311109 -16.380943 -8.167935 0.000000 0.000000 0.000000 -75.846669 5.206699 53.753517 0.000104 104.624353 -0.000085 -76.793613 12.678107 22.126014 6.396755 -16.596229 -10.143355 2.803922 -6.727509 -0.689981 -4.871933 -6.869336 -15.386205 -0.000001 -0.000001 -0.000000 3.111524 -0.689710 81.602982 3.886294 -4.593061 80.461862 3.999529 -4.610601 81.873341 0.000000 -0.000004 0.000001 0.498734 -5.717466 70.203785 2.541281 -4.149726 62.952583 3.142795 -4.404590 71.004680 -0.000002 0.000002 0.000001 -2.066107 -5.239516 74.468186 2.014221 -3.835950 55.394330 5.179209 -4.627869 96.443145 0.000000 -0.000003 0.000001 -13.284493 -6.125462 68.253780 4.233987 -4.637955 84.780686 4.263753 -4.640553 85.148881 -0.000001 -0.000003 0.000002 -34.511027 9.512180 16.042139 68.500179 -3.664638 -0.650292 13.385021 -2.181885 4.375183 3.770998 -0.000000 -0.000008 0.000000 -0.000000 -0.000000 -44.674348 -5.416520 -3.967844 50.259243 -4.668861 2.287649 -2.304743 2.036653 -2.095230 -17.563152 -0.023877 1.224558 0.000000 0.000000 -0.000000 
